<svg xmlns="http://www.w3.org/2000/svg" xmlns:xlink="http://www.w3.org/1999/xlink" width="500" zoomAndPan="magnify" viewBox="0 0 375 374.999991" height="500" preserveAspectRatio="xMidYMid meet" version="1.0"><defs><g/></defs><g fill="#000000" fill-opacity="1"><g transform="translate(129.339841, 199.124987)"><g><path d="M 16.90625 -20.625 C 16.90625 -21.1875 17.132812 -21.613281 17.59375 -21.90625 C 18.050781 -22.195312 18.535156 -22.34375 19.046875 -22.34375 C 19.585938 -22.34375 20.0625 -22.207031 20.46875 -21.9375 C 20.875 -21.664062 21.078125 -21.226562 21.078125 -20.625 L 21.078125 -2.109375 C 21.078125 -1.398438 20.832031 -0.867188 20.34375 -0.515625 C 19.851562 -0.171875 19.316406 0 18.734375 0 C 18.335938 0 17.945312 -0.09375 17.5625 -0.28125 C 17.175781 -0.46875 16.863281 -0.710938 16.625 -1.015625 L 5.890625 -14.84375 L 6.03125 -12.875 L 6.03125 -1.859375 C 6.03125 -1.203125 5.8125 -0.726562 5.375 -0.4375 C 4.945312 -0.144531 4.476562 0 3.96875 0 C 3.425781 0 2.9375 -0.144531 2.5 -0.4375 C 2.070312 -0.726562 1.859375 -1.203125 1.859375 -1.859375 L 1.859375 -20.203125 C 1.859375 -20.898438 2.070312 -21.429688 2.5 -21.796875 C 2.9375 -22.160156 3.4375 -22.34375 4 -22.34375 C 4.445312 -22.34375 4.828125 -22.253906 5.140625 -22.078125 C 5.453125 -21.898438 5.75 -21.640625 6.03125 -21.296875 L 17.046875 -6.984375 L 16.90625 -9.328125 Z M 16.90625 -20.625 "/></g></g></g><g fill="#000000" fill-opacity="1"><g transform="translate(153.576091, 199.124987)"><g><path d="M 10.03125 -3.125 C 10.707031 -3.125 11.375 -3.21875 12.03125 -3.40625 C 12.6875 -3.59375 13.296875 -3.90625 13.859375 -4.34375 C 14.390625 -4.84375 14.910156 -5.070312 15.421875 -5.03125 C 15.941406 -5 16.367188 -4.8125 16.703125 -4.46875 C 17.046875 -4.132812 17.21875 -3.710938 17.21875 -3.203125 C 17.21875 -2.703125 16.972656 -2.21875 16.484375 -1.75 C 15.671875 -0.957031 14.703125 -0.398438 13.578125 -0.078125 C 12.453125 0.234375 11.304688 0.375 10.140625 0.34375 C 8.316406 0.34375 6.707031 -0.0234375 5.3125 -0.765625 C 3.925781 -1.515625 2.835938 -2.554688 2.046875 -3.890625 C 1.265625 -5.222656 0.875 -6.769531 0.875 -8.53125 C 0.875 -10.445312 1.25 -12.128906 2 -13.578125 C 2.75 -15.023438 3.804688 -16.15625 5.171875 -16.96875 C 6.535156 -17.789062 8.15625 -18.203125 10.03125 -18.203125 C 11.90625 -18.203125 13.492188 -17.820312 14.796875 -17.0625 C 16.109375 -16.300781 17.109375 -15.238281 17.796875 -13.875 C 18.492188 -12.507812 18.84375 -10.910156 18.84375 -9.078125 C 18.84375 -8.492188 18.722656 -8 18.484375 -7.59375 C 18.253906 -7.1875 17.632812 -6.984375 16.625 -6.984375 L 4.953125 -6.984375 C 5.273438 -5.835938 5.890625 -4.90625 6.796875 -4.1875 C 7.710938 -3.476562 8.789062 -3.125 10.03125 -3.125 Z M 10.0625 -14.734375 C 8.707031 -14.734375 7.570312 -14.304688 6.65625 -13.453125 C 5.75 -12.597656 5.164062 -11.484375 4.90625 -10.109375 L 15.125 -10.109375 C 15 -11.484375 14.539062 -12.597656 13.75 -13.453125 C 12.957031 -14.304688 11.726562 -14.734375 10.0625 -14.734375 Z M 10.0625 -14.734375 "/></g></g></g><g fill="#000000" fill-opacity="1"><g transform="translate(175.287008, 199.124987)"><g><path d="M 16.203125 -3.328125 C 16.671875 -2.816406 16.882812 -2.300781 16.84375 -1.78125 C 16.8125 -1.269531 16.617188 -0.84375 16.265625 -0.5 C 15.921875 -0.164062 15.503906 0 15.015625 0 C 14.472656 0 13.945312 -0.253906 13.4375 -0.765625 L 8.421875 -6.203125 L 3.4375 -0.84375 C 2.894531 -0.28125 2.3125 0 1.6875 0 C 1.21875 0 0.804688 -0.15625 0.453125 -0.46875 C 0.109375 -0.789062 -0.0703125 -1.191406 -0.09375 -1.671875 C -0.125 -2.148438 0.09375 -2.644531 0.5625 -3.15625 L 5.96875 -8.984375 L 0.703125 -14.65625 C 0.234375 -15.175781 0.0078125 -15.679688 0.03125 -16.171875 C 0.0507812 -16.660156 0.242188 -17.0625 0.609375 -17.375 C 0.972656 -17.695312 1.398438 -17.859375 1.890625 -17.859375 C 2.191406 -17.859375 2.5 -17.785156 2.8125 -17.640625 C 3.132812 -17.503906 3.445312 -17.269531 3.75 -16.9375 L 8.484375 -11.859375 L 13.296875 -17.015625 C 13.578125 -17.316406 13.867188 -17.53125 14.171875 -17.65625 C 14.472656 -17.789062 14.765625 -17.859375 15.046875 -17.859375 C 15.535156 -17.859375 15.957031 -17.703125 16.3125 -17.390625 C 16.664062 -17.085938 16.851562 -16.695312 16.875 -16.21875 C 16.894531 -15.738281 16.660156 -15.234375 16.171875 -14.703125 L 10.90625 -9.046875 Z M 16.203125 -3.328125 "/></g></g></g><g fill="#000000" fill-opacity="1"><g transform="translate(193.525581, 199.124987)"><g><path d="M 9.640625 -3.328125 C 10.179688 -3.628906 10.664062 -3.734375 11.09375 -3.640625 C 11.53125 -3.546875 11.882812 -3.34375 12.15625 -3.03125 C 12.425781 -2.71875 12.5625 -2.347656 12.5625 -1.921875 C 12.5625 -1.617188 12.46875 -1.316406 12.28125 -1.015625 C 12.09375 -0.710938 11.800781 -0.457031 11.40625 -0.25 C 10.882812 0.03125 10.410156 0.195312 9.984375 0.25 C 9.566406 0.3125 9.082031 0.34375 8.53125 0.34375 C 7.007812 0.34375 5.835938 0.03125 5.015625 -0.59375 C 4.191406 -1.226562 3.628906 -2.046875 3.328125 -3.046875 C 3.023438 -4.054688 2.875 -5.125 2.875 -6.25 L 2.875 -14.515625 L 1.546875 -14.515625 C 0.890625 -14.515625 0.398438 -14.691406 0.078125 -15.046875 C -0.234375 -15.398438 -0.390625 -15.773438 -0.390625 -16.171875 C -0.390625 -16.585938 -0.226562 -16.972656 0.09375 -17.328125 C 0.425781 -17.679688 0.910156 -17.859375 1.546875 -17.859375 L 2.875 -17.859375 L 2.875 -20.875 C 2.875 -21.476562 3.070312 -21.929688 3.46875 -22.234375 C 3.863281 -22.546875 4.320312 -22.703125 4.84375 -22.703125 C 5.332031 -22.703125 5.785156 -22.546875 6.203125 -22.234375 C 6.628906 -21.929688 6.84375 -21.476562 6.84375 -20.875 L 6.84375 -17.859375 L 9.578125 -17.859375 C 10.179688 -17.859375 10.644531 -17.679688 10.96875 -17.328125 C 11.300781 -16.972656 11.46875 -16.585938 11.46875 -16.171875 C 11.46875 -15.753906 11.300781 -15.375 10.96875 -15.03125 C 10.644531 -14.6875 10.179688 -14.515625 9.578125 -14.515625 L 6.84375 -14.515625 L 6.84375 -6.25 C 6.84375 -5.726562 6.875 -5.226562 6.9375 -4.75 C 7.007812 -4.269531 7.164062 -3.875 7.40625 -3.5625 C 7.65625 -3.25 8.03125 -3.09375 8.53125 -3.09375 C 8.707031 -3.09375 8.90625 -3.117188 9.125 -3.171875 C 9.351562 -3.234375 9.523438 -3.285156 9.640625 -3.328125 Z M 9.640625 -3.328125 "/></g></g></g><g fill="#000000" fill-opacity="1"><g transform="translate(207.029139, 199.124987)"><g><path d="M 19.015625 -20.484375 C 19.015625 -21.117188 19.226562 -21.585938 19.65625 -21.890625 C 20.09375 -22.191406 20.566406 -22.34375 21.078125 -22.34375 C 21.617188 -22.34375 22.09375 -22.191406 22.5 -21.890625 C 22.90625 -21.585938 23.109375 -21.128906 23.109375 -20.515625 L 23.109375 -9.859375 C 23.109375 -7.828125 22.671875 -6.039062 21.796875 -4.5 C 20.921875 -2.96875 19.691406 -1.773438 18.109375 -0.921875 C 16.535156 -0.078125 14.6875 0.34375 12.5625 0.34375 C 10.457031 0.34375 8.609375 -0.078125 7.015625 -0.921875 C 5.421875 -1.773438 4.1875 -2.96875 3.3125 -4.5 C 2.4375 -6.039062 2 -7.828125 2 -9.859375 L 2 -20.59375 C 2 -21.175781 2.207031 -21.613281 2.625 -21.90625 C 3.050781 -22.195312 3.519531 -22.34375 4.03125 -22.34375 C 4.570312 -22.34375 5.054688 -22.195312 5.484375 -21.90625 C 5.921875 -21.613281 6.140625 -21.164062 6.140625 -20.5625 L 6.140625 -9.859375 C 6.140625 -7.921875 6.722656 -6.347656 7.890625 -5.140625 C 9.054688 -3.929688 10.597656 -3.328125 12.515625 -3.328125 C 14.460938 -3.328125 16.03125 -3.929688 17.21875 -5.140625 C 18.414062 -6.347656 19.015625 -7.921875 19.015625 -9.859375 Z M 19.015625 -20.484375 "/></g></g></g><g fill="#000000" fill-opacity="1"><g transform="translate(233.650441, 199.124987)"><g><path d="M 11.828125 -18.203125 C 13.460938 -18.203125 14.851562 -17.84375 16 -17.125 C 17.144531 -16.414062 18.019531 -15.429688 18.625 -14.171875 C 19.226562 -12.910156 19.53125 -11.4375 19.53125 -9.75 L 19.53125 -1.828125 C 19.53125 -1.285156 19.351562 -0.84375 19 -0.5 C 18.65625 -0.164062 18.164062 0 17.53125 0 C 16.945312 0 16.46875 -0.164062 16.09375 -0.5 C 15.726562 -0.84375 15.546875 -1.285156 15.546875 -1.828125 L 15.546875 -9.828125 C 15.546875 -11.273438 15.195312 -12.445312 14.5 -13.34375 C 13.8125 -14.25 12.71875 -14.703125 11.21875 -14.703125 C 10.78125 -14.703125 10.25 -14.578125 9.625 -14.328125 C 9.007812 -14.085938 8.398438 -13.71875 7.796875 -13.21875 C 7.203125 -12.726562 6.710938 -12.109375 6.328125 -11.359375 C 5.941406 -10.617188 5.75 -9.734375 5.75 -8.703125 L 5.75 -1.78125 C 5.75 -0.59375 5.109375 0 3.828125 0 C 3.210938 0 2.710938 -0.15625 2.328125 -0.46875 C 1.941406 -0.789062 1.75 -1.226562 1.75 -1.78125 L 1.75 -16.0625 C 1.75 -16.644531 1.953125 -17.085938 2.359375 -17.390625 C 2.773438 -17.703125 3.238281 -17.859375 3.75 -17.859375 C 4.238281 -17.859375 4.691406 -17.703125 5.109375 -17.390625 C 5.535156 -17.085938 5.75 -16.671875 5.75 -16.140625 L 5.75 -15.890625 C 6.757812 -16.828125 7.800781 -17.445312 8.875 -17.75 C 9.945312 -18.050781 10.929688 -18.203125 11.828125 -18.203125 Z M 11.828125 -18.203125 "/></g></g></g><g fill="#000000" fill-opacity="1"><g transform="translate(256.27328, 199.124987)"><g><path d="M 5.265625 -20.484375 C 5.265625 -19.898438 5.046875 -19.460938 4.609375 -19.171875 C 4.179688 -18.878906 3.722656 -18.734375 3.234375 -18.734375 C 2.710938 -18.734375 2.238281 -18.878906 1.8125 -19.171875 C 1.394531 -19.460938 1.1875 -19.898438 1.1875 -20.484375 L 1.1875 -20.9375 C 1.1875 -21.550781 1.394531 -22 1.8125 -22.28125 C 2.238281 -22.5625 2.710938 -22.703125 3.234375 -22.703125 C 3.722656 -22.703125 4.179688 -22.5625 4.609375 -22.28125 C 5.046875 -22 5.265625 -21.550781 5.265625 -20.9375 Z M 1.234375 -16.140625 C 1.234375 -16.703125 1.445312 -17.128906 1.875 -17.421875 C 2.3125 -17.710938 2.765625 -17.859375 3.234375 -17.859375 C 3.722656 -17.859375 4.175781 -17.710938 4.59375 -17.421875 C 5.019531 -17.128906 5.234375 -16.710938 5.234375 -16.171875 L 5.234375 -1.71875 C 5.234375 -1.132812 5.019531 -0.703125 4.59375 -0.421875 C 4.175781 -0.140625 3.722656 0 3.234375 0 C 2.765625 0 2.3125 -0.140625 1.875 -0.421875 C 1.445312 -0.703125 1.234375 -1.132812 1.234375 -1.71875 Z M 1.234375 -16.140625 "/></g></g></g><g fill="#000000" fill-opacity="1"><g transform="translate(263.35826, 199.124987)"><g><path d="M 13.859375 -13.046875 C 13.316406 -13.679688 12.679688 -14.125 11.953125 -14.375 C 11.234375 -14.632812 10.523438 -14.765625 9.828125 -14.765625 C 8.273438 -14.765625 7.03125 -14.234375 6.09375 -13.171875 C 5.164062 -12.109375 4.703125 -10.675781 4.703125 -8.875 C 4.703125 -7.144531 5.1875 -5.753906 6.15625 -4.703125 C 7.125 -3.648438 8.394531 -3.125 9.96875 -3.125 C 10.664062 -3.125 11.375 -3.242188 12.09375 -3.484375 C 12.820312 -3.734375 13.46875 -4.140625 14.03125 -4.703125 C 14.539062 -5.210938 15.046875 -5.476562 15.546875 -5.5 C 16.054688 -5.53125 16.472656 -5.390625 16.796875 -5.078125 C 17.128906 -4.773438 17.3125 -4.382812 17.34375 -3.90625 C 17.382812 -3.425781 17.179688 -2.941406 16.734375 -2.453125 C 15.816406 -1.453125 14.769531 -0.734375 13.59375 -0.296875 C 12.414062 0.128906 11.191406 0.34375 9.921875 0.34375 C 8.078125 0.34375 6.457031 -0.0390625 5.0625 -0.8125 C 3.675781 -1.582031 2.597656 -2.65625 1.828125 -4.03125 C 1.054688 -5.414062 0.671875 -7.019531 0.671875 -8.84375 C 0.671875 -10.738281 1.050781 -12.382812 1.8125 -13.78125 C 2.570312 -15.1875 3.640625 -16.273438 5.015625 -17.046875 C 6.390625 -17.816406 7.992188 -18.203125 9.828125 -18.203125 C 11.109375 -18.203125 12.300781 -18.003906 13.40625 -17.609375 C 14.519531 -17.210938 15.546875 -16.460938 16.484375 -15.359375 C 16.910156 -14.867188 17.09375 -14.390625 17.03125 -13.921875 C 16.96875 -13.453125 16.757812 -13.066406 16.40625 -12.765625 C 16.0625 -12.460938 15.648438 -12.316406 15.171875 -12.328125 C 14.691406 -12.335938 14.253906 -12.578125 13.859375 -13.046875 Z M 13.859375 -13.046875 "/></g></g></g><g fill="#000000" fill-opacity="1"><g transform="translate(282.22817, 199.124987)"><g><path d="M 10.03125 -18.203125 C 11.90625 -18.203125 13.539062 -17.8125 14.9375 -17.03125 C 16.34375 -16.25 17.429688 -15.15625 18.203125 -13.75 C 18.972656 -12.34375 19.359375 -10.707031 19.359375 -8.84375 C 19.335938 -7.019531 18.9375 -5.414062 18.15625 -4.03125 C 17.375 -2.65625 16.285156 -1.582031 14.890625 -0.8125 C 13.492188 -0.0390625 11.875 0.34375 10.03125 0.34375 C 8.207031 0.34375 6.59375 -0.0390625 5.1875 -0.8125 C 3.789062 -1.582031 2.695312 -2.65625 1.90625 -4.03125 C 1.125 -5.414062 0.722656 -7.019531 0.703125 -8.84375 C 0.703125 -10.707031 1.09375 -12.34375 1.875 -13.75 C 2.65625 -15.15625 3.75 -16.25 5.15625 -17.03125 C 6.5625 -17.8125 8.1875 -18.203125 10.03125 -18.203125 Z M 10.03125 -3.15625 C 11.625 -3.15625 12.894531 -3.679688 13.84375 -4.734375 C 14.789062 -5.785156 15.265625 -7.15625 15.265625 -8.84375 C 15.265625 -10.570312 14.789062 -11.976562 13.84375 -13.0625 C 12.894531 -14.15625 11.625 -14.703125 10.03125 -14.703125 C 8.46875 -14.703125 7.207031 -14.15625 6.25 -13.0625 C 5.289062 -11.976562 4.8125 -10.570312 4.8125 -8.84375 C 4.8125 -7.15625 5.289062 -5.785156 6.25 -4.734375 C 7.207031 -3.679688 8.46875 -3.15625 10.03125 -3.15625 Z M 10.03125 -3.15625 "/></g></g></g><g fill="#000000" fill-opacity="1"><g transform="translate(303.027153, 199.124987)"><g><path d="M 9.46875 -17.859375 C 10.101562 -17.859375 10.609375 -17.722656 10.984375 -17.453125 C 11.359375 -17.179688 11.546875 -16.742188 11.546875 -16.140625 C 11.546875 -15.578125 11.359375 -15.128906 10.984375 -14.796875 C 10.609375 -14.472656 10.101562 -14.3125 9.46875 -14.3125 C 8 -14.3125 6.960938 -13.785156 6.359375 -12.734375 C 5.765625 -11.679688 5.46875 -10.253906 5.46875 -8.453125 L 5.46875 -1.78125 C 5.46875 -1.269531 5.28125 -0.84375 4.90625 -0.5 C 4.53125 -0.164062 4.078125 0 3.546875 0 C 2.929688 0 2.4375 -0.164062 2.0625 -0.5 C 1.695312 -0.84375 1.515625 -1.269531 1.515625 -1.78125 L 1.515625 -16.0625 C 1.515625 -16.625 1.726562 -17.0625 2.15625 -17.375 C 2.59375 -17.695312 3.054688 -17.859375 3.546875 -17.859375 C 4.035156 -17.859375 4.476562 -17.703125 4.875 -17.390625 C 5.269531 -17.085938 5.46875 -16.644531 5.46875 -16.0625 L 5.46875 -15.859375 C 5.988281 -16.535156 6.585938 -17.035156 7.265625 -17.359375 C 7.941406 -17.691406 8.675781 -17.859375 9.46875 -17.859375 Z M 9.46875 -17.859375 "/></g></g></g><g fill="#000000" fill-opacity="1"><g transform="translate(314.847148, 199.124987)"><g><path d="M 11.828125 -18.203125 C 13.460938 -18.203125 14.851562 -17.84375 16 -17.125 C 17.144531 -16.414062 18.019531 -15.429688 18.625 -14.171875 C 19.226562 -12.910156 19.53125 -11.4375 19.53125 -9.75 L 19.53125 -1.828125 C 19.53125 -1.285156 19.351562 -0.84375 19 -0.5 C 18.65625 -0.164062 18.164062 0 17.53125 0 C 16.945312 0 16.46875 -0.164062 16.09375 -0.5 C 15.726562 -0.84375 15.546875 -1.285156 15.546875 -1.828125 L 15.546875 -9.828125 C 15.546875 -11.273438 15.195312 -12.445312 14.5 -13.34375 C 13.8125 -14.25 12.71875 -14.703125 11.21875 -14.703125 C 10.78125 -14.703125 10.25 -14.578125 9.625 -14.328125 C 9.007812 -14.085938 8.398438 -13.71875 7.796875 -13.21875 C 7.203125 -12.726562 6.710938 -12.109375 6.328125 -11.359375 C 5.941406 -10.617188 5.75 -9.734375 5.75 -8.703125 L 5.75 -1.78125 C 5.75 -0.59375 5.109375 0 3.828125 0 C 3.210938 0 2.710938 -0.15625 2.328125 -0.46875 C 1.941406 -0.789062 1.75 -1.226562 1.75 -1.78125 L 1.75 -16.0625 C 1.75 -16.644531 1.953125 -17.085938 2.359375 -17.390625 C 2.773438 -17.703125 3.238281 -17.859375 3.75 -17.859375 C 4.238281 -17.859375 4.691406 -17.703125 5.109375 -17.390625 C 5.535156 -17.085938 5.75 -16.671875 5.75 -16.140625 L 5.75 -15.890625 C 6.757812 -16.828125 7.800781 -17.445312 8.875 -17.75 C 9.945312 -18.050781 10.929688 -18.203125 11.828125 -18.203125 Z M 11.828125 -18.203125 "/></g></g></g><g fill="#000000" fill-opacity="1"><g transform="translate(64.187739, 225.083265)"><g><path d="M 41.546875 -44.765625 C 41.546875 -46.148438 42.019531 -47.171875 42.96875 -47.828125 C 43.914062 -48.492188 44.953125 -48.828125 46.078125 -48.828125 C 47.242188 -48.828125 48.273438 -48.492188 49.171875 -47.828125 C 50.066406 -47.171875 50.515625 -46.175781 50.515625 -44.84375 L 50.515625 -21.546875 C 50.515625 -17.097656 49.554688 -13.195312 47.640625 -9.84375 C 45.722656 -6.5 43.039062 -3.894531 39.59375 -2.03125 C 36.144531 -0.164062 32.09375 0.765625 27.4375 0.765625 C 22.84375 0.765625 18.804688 -0.164062 15.328125 -2.03125 C 11.859375 -3.894531 9.164062 -6.5 7.25 -9.84375 C 5.332031 -13.195312 4.375 -17.097656 4.375 -21.546875 L 4.375 -45 C 4.375 -46.269531 4.832031 -47.222656 5.75 -47.859375 C 6.664062 -48.503906 7.6875 -48.828125 8.8125 -48.828125 C 9.988281 -48.828125 11.050781 -48.503906 12 -47.859375 C 12.945312 -47.222656 13.421875 -46.242188 13.421875 -44.921875 L 13.421875 -21.546875 C 13.421875 -17.296875 14.695312 -13.851562 17.25 -11.21875 C 19.800781 -8.59375 23.171875 -7.28125 27.359375 -7.28125 C 31.609375 -7.28125 35.035156 -8.59375 37.640625 -11.21875 C 40.242188 -13.851562 41.546875 -17.296875 41.546875 -21.546875 Z M 41.546875 -44.765625 "/></g></g></g><g fill="#000000" fill-opacity="1"><g transform="translate(99.877162, 155.396457)"><g><path d="M -41.546875 44.765625 C -41.546875 46.148438 -42.019531 47.171875 -42.96875 47.828125 C -43.914062 48.492188 -44.953125 48.828125 -46.078125 48.828125 C -47.242188 48.828125 -48.273438 48.492188 -49.171875 47.828125 C -50.066406 47.171875 -50.515625 46.175781 -50.515625 44.84375 L -50.515625 21.546875 C -50.515625 17.097656 -49.554688 13.195312 -47.640625 9.84375 C -45.722656 6.5 -43.039062 3.894531 -39.59375 2.03125 C -36.144531 0.164062 -32.09375 -0.765625 -27.4375 -0.765625 C -22.84375 -0.765625 -18.804688 0.164062 -15.328125 2.03125 C -11.859375 3.894531 -9.164062 6.5 -7.25 9.84375 C -5.332031 13.195312 -4.375 17.097656 -4.375 21.546875 L -4.375 45 C -4.375 46.269531 -4.832031 47.222656 -5.75 47.859375 C -6.664062 48.503906 -7.6875 48.828125 -8.8125 48.828125 C -9.988281 48.828125 -11.050781 48.503906 -12 47.859375 C -12.945312 47.222656 -13.421875 46.242188 -13.421875 44.921875 L -13.421875 21.546875 C -13.421875 17.296875 -14.695312 13.851562 -17.25 11.21875 C -19.800781 8.59375 -23.171875 7.28125 -27.359375 7.28125 C -31.609375 7.28125 -35.035156 8.59375 -37.640625 11.21875 C -40.242188 13.851562 -41.546875 17.296875 -41.546875 21.546875 Z M -41.546875 44.765625 "/></g></g></g></svg>