<svg xmlns="http://www.w3.org/2000/svg" xmlns:xlink="http://www.w3.org/1999/xlink" width="500" zoomAndPan="magnify" viewBox="0 0 375 374.999991" height="500" preserveAspectRatio="xMidYMid meet" version="1.0"><defs><g/></defs><g fill="#000000" fill-opacity="1"><g transform="translate(169.661698, 222.340318)"><g><path d="M 41.546875 -44.765625 C 41.546875 -46.148438 42.019531 -47.171875 42.96875 -47.828125 C 43.914062 -48.492188 44.953125 -48.828125 46.078125 -48.828125 C 47.242188 -48.828125 48.273438 -48.492188 49.171875 -47.828125 C 50.066406 -47.171875 50.515625 -46.175781 50.515625 -44.84375 L 50.515625 -21.546875 C 50.515625 -17.097656 49.554688 -13.195312 47.640625 -9.84375 C 45.722656 -6.5 43.039062 -3.894531 39.59375 -2.03125 C 36.144531 -0.164062 32.09375 0.765625 27.4375 0.765625 C 22.84375 0.765625 18.804688 -0.164062 15.328125 -2.03125 C 11.859375 -3.894531 9.164062 -6.5 7.25 -9.84375 C 5.332031 -13.195312 4.375 -17.097656 4.375 -21.546875 L 4.375 -45 C 4.375 -46.269531 4.832031 -47.222656 5.75 -47.859375 C 6.664062 -48.503906 7.6875 -48.828125 8.8125 -48.828125 C 9.988281 -48.828125 11.050781 -48.503906 12 -47.859375 C 12.945312 -47.222656 13.421875 -46.242188 13.421875 -44.921875 L 13.421875 -21.546875 C 13.421875 -17.296875 14.695312 -13.851562 17.25 -11.21875 C 19.800781 -8.59375 23.171875 -7.28125 27.359375 -7.28125 C 31.609375 -7.28125 35.035156 -8.59375 37.640625 -11.21875 C 40.242188 -13.851562 41.546875 -17.296875 41.546875 -21.546875 Z M 41.546875 -44.765625 "/></g></g></g><g fill="#000000" fill-opacity="1"><g transform="translate(205.351133, 152.653564)"><g><path d="M -41.546875 44.765625 C -41.546875 46.148438 -42.019531 47.171875 -42.96875 47.828125 C -43.914062 48.492188 -44.953125 48.828125 -46.078125 48.828125 C -47.242188 48.828125 -48.273438 48.492188 -49.171875 47.828125 C -50.066406 47.171875 -50.515625 46.175781 -50.515625 44.84375 L -50.515625 21.546875 C -50.515625 17.097656 -49.554688 13.195312 -47.640625 9.84375 C -45.722656 6.5 -43.039062 3.894531 -39.59375 2.03125 C -36.144531 0.164062 -32.09375 -0.765625 -27.4375 -0.765625 C -22.84375 -0.765625 -18.804688 0.164062 -15.328125 2.03125 C -11.859375 3.894531 -9.164062 6.5 -7.25 9.84375 C -5.332031 13.195312 -4.375 17.097656 -4.375 21.546875 L -4.375 45 C -4.375 46.269531 -4.832031 47.222656 -5.75 47.859375 C -6.664062 48.503906 -7.6875 48.828125 -8.8125 48.828125 C -9.988281 48.828125 -11.050781 48.503906 -12 47.859375 C -12.945312 47.222656 -13.421875 46.242188 -13.421875 44.921875 L -13.421875 21.546875 C -13.421875 17.296875 -14.695312 13.851562 -17.25 11.21875 C -19.800781 8.59375 -23.171875 7.28125 -27.359375 7.28125 C -31.609375 7.28125 -35.035156 8.59375 -37.640625 11.21875 C -40.242188 13.851562 -41.546875 17.296875 -41.546875 21.546875 Z M -41.546875 44.765625 "/></g></g></g></svg>